<svg xmlns="http://www.w3.org/2000/svg" xmlns:xlink="http://www.w3.org/1999/xlink" version="1.1" id="Layer_1" x="0px" y="0px" width="60px" height="60px" viewBox="3.0 -6.0 60.0 81.0" enable-background="new 0 0 60 60" xml:space="preserve">
<path d="M30.461,19.657c-0.095-0.129-0.235-0.206-0.392-0.258c0.132-0.478,0.17-0.968,0.118-1.327  c-0.018-0.133,0.099-0.415,0.221-0.766c0.133-0.176,0.212-0.491,0.232-0.975c0.014-0.141,0.011-0.285-0.003-0.424  c-0.01-0.417-0.066-0.824-0.144-1.224c0.029-3.059,0.147-5.109,0.147-5.109s-3.441-3.372-9.741-3.372  c-6.301,0-9.741,3.148-9.741,3.148l0.141,5.302c-0.093,0.464-0.151,0.939-0.151,1.427c0,0.154,0.004,0.285,0.009,0.404l-0.009,0.018  c0,0,0.006,0.019,0.014,0.053c0.025,0.38,0.086,0.578,0.183,0.64c0.176,0.594,0.144,1.484,0.264,2.255  c-0.106,0.051-0.204,0.113-0.273,0.209c-0.298,0.404-0.172,1.285-0.172,1.897c0,1.237,0.754,2.239,1.684,2.242  c1.163,4.448,4.328,7.645,8.061,7.645c3.733,0,6.898-3.198,8.061-7.647c0.92-0.018,1.664-1.011,1.664-2.239  C30.633,20.942,30.76,20.061,30.461,19.657z M17.828,9.273h2.303V6.97h1.535v2.303h2.303v1.536h-2.303v2.303h-1.535v-2.303h-2.303  V9.273z M29.3,21.554c0,0.555-0.264,0.878-0.356,0.906l-1.009,0.02l-0.255,0.977c-1.039,3.978-3.76,6.651-6.771,6.651  c-3.01,0-5.731-2.672-6.771-6.649l-0.25-0.992l-1.026-0.003c-0.1-0.03-0.364-0.355-0.364-0.91c0-0.152-0.007-0.77-0.014-0.943  c-0.002-0.048,0.616,0.022,0.616,0.022l0.555-0.007l0.062-1.251c0.144-2.938,1.228-3.667,2.35-4.013l0.005,0h0  c0.283,0,0.977,0.377,1.484,0.652c0.988,0.536,2.108,1.145,3.354,1.145c1.294,0,2.362-0.644,3.22-1.161  c0.45-0.271,1.009-0.608,1.31-0.608c0.002,0,0.004,0,0.006,0c0.945,0.282,1.848,0.77,2.324,2.154  c0.165,0.597,0.288,1.309,0.349,2.166l0.02,0.349c0.015,0.3,0.027,0.605,0.027,0.937c0.475,0.09,0.858-0.045,1.161-0.303  c-0.002,0.129-0.007,0.263-0.012,0.367C29.306,21.233,29.3,21.401,29.3,21.554z"/>
<path d="M30.655,51.013V32.93c-0.521-0.184-1.038-0.352-1.545-0.495c0-0.017-0.002-0.037-0.002-0.054  c-0.969-0.263-1.906-0.459-2.773-0.593c-0.378,5.44-1.635,16.879-5.536,17.691c-3.9-0.812-5.158-12.251-5.536-17.691  c-0.867,0.134-1.804,0.33-2.773,0.593c0,0.017-0.002,0.036-0.002,0.054c-0.896,0.251-1.82,0.564-2.751,0.957  c-0.556,0.207-0.8,0.405-1.256,0.577c-1.773,0.889-3.53,2.088-5.112,3.704c-0.15,3.148,0.151,7.343,1.499,9.143  c0.934,1.246,2.388,3.35,7.27,4.529c-0.002,0.017-0.003,0.032-0.004,0.049c1.453,0.336,3.187,0.595,5.307,0.725  c1.163,0.118,2.332,0.151,3.358,0.145c1.026,0.006,2.194-0.027,3.358-0.145c2.121-0.129,3.854-0.389,5.307-0.725  c-0.001-0.017-0.002-0.032-0.003-0.049C29.886,51.241,30.278,51.129,30.655,51.013z"/>
<g>
	<path d="M32.612,24.754v29.044h24.055V24.754H32.612z M33.38,53.03V28.017h22.52V53.03H33.38z"/>
	<rect x="39.649" y="30.091" width="9.596" height="1.089"/>
	<rect x="35.299" y="36.602" width="10.875" height="0.768"/>
	<rect x="35.299" y="40.149" width="13.947" height="0.768"/>
	<rect x="35.299" y="43.629" width="10.875" height="0.768"/>
	<rect x="35.299" y="47.177" width="13.947" height="0.768"/>
</g>
</svg>