<svg xmlns="http://www.w3.org/2000/svg" xmlns:xlink="http://www.w3.org/1999/xlink" version="1.1" id="Layer_1" x="0px" y="0px" width="100px" height="100px" viewBox="5.0 -10.0 100.0 135.0" enable-background="new 0 0 100 100" xml:space="preserve">
<rect fill="none" width="100" height="100"/>
<path d="M90.829,30.815c-3.625-6.233-9.183-10.75-14.862-12.08c-7.109-1.67-17.004,1.672-19.351,11.67  c-1.085,4.627-0.399,8.414,2.035,11.253c1.217,1.423,2.852,2.557,4.874,3.386c-0.051,0.151-0.086,0.319-0.132,0.475  c-3.501-0.511-7.565,0.208-10.623,2.078c-0.024,0.014-0.043,0.033-0.069,0.048V15.715h-4.908v24.683  c0,1.749-0.884,3.177-2.631,4.246c-2.605,1.594-6.175,1.848-8.47,1.179c-0.072-0.261-0.133-0.532-0.217-0.779  c2.022-0.829,3.656-1.963,4.875-3.386c2.435-2.84,3.12-6.626,2.034-11.253c-2.345-9.998-12.244-13.34-19.349-11.67  c-5.682,1.33-11.238,5.847-14.862,12.08c-3.904,6.714-5.121,14.39-3.428,21.615c2.833,12.085,8.299,28.15,22.999,28.15  c1.728,0,3.567-0.226,5.471-0.671c10.308-2.418,11.995-13.971,10.962-18.383c-0.673-2.863-3.362-8.352-7.831-9.82  c0.014-0.249,0.002-0.508,0.005-0.762c0.646,0.081,1.302,0.139,1.975,0.139c2.909,0,5.974-0.769,8.399-2.252  c0.024-0.014,0.043-0.034,0.07-0.048v35.502h4.908V56.029c0-1.749,0.884-3.178,2.631-4.246c2.197-1.347,5.085-1.733,7.313-1.419  c-0.009,0.451-0.017,0.901,0.01,1.342c-4.469,1.469-7.158,6.957-7.831,9.823c-1.033,4.409,0.654,15.962,10.963,18.38  c1.903,0.445,3.743,0.671,5.469,0.671c14.702,0,20.168-16.065,23-28.15C95.948,45.205,94.73,37.529,90.829,30.815z M40.398,62.646  c0.487,2.08-0.14,10.803-7.304,12.485C21.726,77.8,15.089,70.793,10.522,51.309c-1.406-5.998-0.378-12.401,2.893-18.028  c2.958-5.087,7.347-8.74,11.74-9.768c0.807-0.189,1.665-0.285,2.551-0.285c4.13,0,9.463,2.173,10.9,8.298  c0.718,3.06,0.396,5.33-0.982,6.94c-1.075,1.253-2.836,2.176-5.235,2.737l-1.489,0.338c-2.395-1.028-4.309-2.442-5.691-4.932  c-0.328-0.595-1.074-0.803-1.668-0.479c-0.592,0.328-0.806,1.076-0.477,1.668c0.637,1.15,1.376,2.094,2.176,2.899  c-1.935-0.259-3.708-0.426-4.814-0.481c-0.661-0.06-1.252,0.486-1.286,1.165c-0.032,0.678,0.489,1.253,1.166,1.284  c2.091,0.103,6.25,0.585,9.445,1.294l1.493,1.397c0.672,0.779,1.744,4.992,0.939,7.786l-0.214,0.976  c-2.143,1.363-4.868,2.655-7.769,2.896c-0.676,0.056-1.178,0.649-1.12,1.325c0.052,0.641,0.589,1.124,1.221,1.124  c0.034,0,0.068-0.002,0.103-0.005c1.758-0.146,3.437-0.62,4.989-1.25c-1.225,2.053-2.051,4.088-2.466,5.667  c-0.172,0.654,0.219,1.325,0.875,1.498c0.104,0.028,0.21,0.04,0.313,0.04c0.544,0,1.041-0.364,1.185-0.915  c0.582-2.217,2.111-5.416,4.496-8.114l1.254-0.139C37.361,56.245,39.8,60.099,40.398,62.646z M89.478,51.309  c-3.949,16.851-9.568,24.363-18.222,24.363c-1.349,0-2.813-0.182-4.347-0.541c-7.165-1.683-7.793-10.405-7.307-12.482  c0.597-2.545,3.029-6.389,5.576-6.389c0.005,0,0.01,0,0.015,0l1.002,0.109c2.392,2.703,3.923,5.907,4.507,8.129  c0.145,0.551,0.64,0.915,1.187,0.915c0.101,0,0.206-0.012,0.312-0.04c0.656-0.173,1.047-0.844,0.875-1.498  c-0.415-1.579-1.241-3.614-2.466-5.667c1.553,0.63,3.229,1.104,4.989,1.25c0.033,0.003,0.069,0.005,0.103,0.005  c0.63,0,1.167-0.483,1.22-1.124c0.058-0.676-0.443-1.27-1.119-1.325c-2.863-0.239-5.557-1.5-7.688-2.844l-0.295-1.028  c-0.805-2.794,0.267-7.007,0.911-7.757l1.523-1.428c3.197-0.709,7.353-1.189,9.442-1.292c0.676-0.031,1.198-0.606,1.164-1.284  c-0.033-0.678-0.625-1.234-1.284-1.165c-1.107,0.055-2.881,0.223-4.814,0.481c0.798-0.805,1.539-1.75,2.176-2.899  c0.328-0.592,0.115-1.34-0.477-1.668c-0.595-0.324-1.34-0.115-1.668,0.479c-1.385,2.497-3.307,3.911-5.711,4.938l-1.469-0.345  c-2.401-0.561-4.16-1.483-5.235-2.737c-1.378-1.61-1.699-3.88-0.983-6.94c1.436-6.125,6.771-8.298,10.901-8.298  c0.887,0,1.745,0.096,2.55,0.285c4.393,1.028,8.78,4.68,11.74,9.768C89.856,38.907,90.885,45.311,89.478,51.309z"/>
</svg>