<?xml version="1.0" encoding="utf-8"?>
<!-- Generator: Adobe Illustrator 15.0.0, SVG Export Plug-In . SVG Version: 6.00 Build 0)  -->
<!DOCTYPE svg PUBLIC "-//W3C//DTD SVG 1.1//EN" "http://www.w3.org/Graphics/SVG/1.1/DTD/svg11.dtd">
<svg version="1.1" id="Layer_1" xmlns="http://www.w3.org/2000/svg" xmlns:xlink="http://www.w3.org/1999/xlink" x="0px" y="0px"
	 width="800px" height="600px" viewBox="0 0 800 600" enable-background="new 0 0 800 600" xml:space="preserve">
<g id="base">
	<g>
		<g>
			<path fill="#9B9B9B" d="M670,109H402.5H399H131.5c0,0-43-7-37,40v315c0,0,3,15,51,31c47.3,15.8,235.7,38.4,255.3,37.1
				c19.6,1.3,207.9-21.3,255.3-37.1c48-16,51-31,51-31V149C713,102,670,109,670,109z"/>
			<g>
				<g>
					<polyline fill="none" stroke="#D8D8D8" stroke-miterlimit="10" points="636.6,178.1 636.6,182.1 632.6,182.1 					"/>
					
						<line fill="none" stroke="#D8D8D8" stroke-miterlimit="10" stroke-dasharray="8.0819,8.0819" x1="624.5" y1="182.1" x2="175.9" y2="182.1"/>
					<polyline fill="none" stroke="#D8D8D8" stroke-miterlimit="10" points="171.9,182.1 167.9,182.1 167.9,178.1 					"/>
					
						<line fill="none" stroke="#D8D8D8" stroke-miterlimit="10" stroke-dasharray="8.6667,8.6667" x1="167.9" y1="169.4" x2="167.9" y2="139.1"/>
					<polyline fill="none" stroke="#D8D8D8" stroke-miterlimit="10" points="167.9,134.8 167.9,130.8 171.9,130.8 					"/>
					
						<line fill="none" stroke="#D8D8D8" stroke-miterlimit="10" stroke-dasharray="8.0819,8.0819" x1="180" y1="130.8" x2="628.5" y2="130.8"/>
					<polyline fill="none" stroke="#D8D8D8" stroke-miterlimit="10" points="632.6,130.8 636.6,130.8 636.6,134.8 					"/>
					
						<line fill="none" stroke="#D8D8D8" stroke-miterlimit="10" stroke-dasharray="8.6667,8.6667" x1="636.6" y1="143.4" x2="636.6" y2="173.8"/>
				</g>
			</g>
			
				<rect x="216.1" y="192.3" fill="none" stroke="#D8D8D8" stroke-miterlimit="10" stroke-dasharray="8" width="378" height="265.3"/>
			<rect x="114.6" y="233" fill="none" stroke="#D8D8D8" stroke-miterlimit="10" stroke-dasharray="8" width="92" height="193.3"/>
			<rect x="604.3" y="233" fill="none" stroke="#D8D8D8" stroke-miterlimit="10" stroke-dasharray="8" width="77.3" height="184"/>
		</g>
		<g>
			<path fill="#5B5B5B" d="M370.3,470c0.6,0,1.3,0,1.9,0c1.8,0.5,2.7,1.8,2.1,4.3c-1,4.7-6.1,11.1-7.7,14.5c2.5-1.4,4.7-4.4,7.5-6.8
				c3.3-2.9,6.8-6.7,12.4-5.3c0.7,1.2,1.1,2.7,0.6,4.9c-1.3,5.7-6.3,11.6-6.8,18.3c-1.4,0.2-1.9-0.5-2.6-1.1
				c0.2-9.5,6.6-12.9,7.9-21.3c-3.1-0.7-6,1.8-8.1,3.4c-6.8,5.2-12.8,12.2-17.9,19c-1.9-2.8,0.1-5.8,1.3-7.9
				c1.3-2.3,2.9-4.6,4.3-6.6c3-4.3,6.9-8.2,7.7-13.4c-1.9-1.6-4.9,0-7,0.9c-2.3,0.9-4.7,2.2-5.8,3.8c-0.8,0.6,0.8,0.8,0.2,1.1
				c-0.7,0.6-1.4-0.2-1.7-0.6c0-0.4,0-0.7,0-1.1C360.7,472.3,365.4,471.1,370.3,470z"/>
			<path fill="#5B5B5B" d="M405.2,479.4c-1.1,0.1-2.1,0.5-3,0.9c-0.1-1.4-4.9-3.1-5.3-0.6c-0.4,2.2,8,2.1,8.7,5.3
				c1.3,5.6-5.9,7.5-10.5,5.3c-2.9,2.4-5.4,5.3-7.9,8.1c-0.1,2-0.8,5.2,0.9,6c2.7-0.5,3.5-2.9,6-3.6c-1.2,3.1-9.6,8.5-9.4,0.6
				c-3.7,2.2-6.2,6.9-9.4,9c2.5-4.2,6.3-7.2,9.4-10.9c0.1-2.6,1.2-7.4-0.6-8.1c0-1.2,2.5-0.6,3.2-0.4c0.9,1.4,0.1,3.4,0.2,5.3
				c2.2-1.2,4.4-4.6,6.6-6.4c-0.7-0.9-1.9-1.4-1.9-3c1.2-0.1,2.2-0.3,3.2-0.6c0.3,0.7,0.9,1.5,1.9,1.9c1.6,0.7,4.4,0,4.5-1.3
				c0.1-2-6.8-2.4-7.9-3.6c-0.4-0.5-0.8-1.4-0.9-1.7C391.8,475.2,403.6,473.5,405.2,479.4z"/>
			<path fill="#5B5B5B" d="M417.6,476c0,1,0,2,0,3c-1.3,0-3.8,0-3.8,0l-0.2,12.2h-4.1c0,0,0-8.2,0-12.2c-1.4,0-2.7,0-4.1,0
				c0-1,0-2,0-3C409.5,476,413.6,476,417.6,476z"/>
			<path fill="#5B5B5B" d="M424.7,476c1.6,5,5.2,15.1,5.2,15.1h-4.4l-1.1-3.4h-4.9l-1.3,3.4c0,0-2.3,0-3.4,0
				c1.6-5.1,3.4-10.3,5.3-15.1C421.7,476,423.2,476,424.7,476z M420.2,485.2h3.4l-1.3-4.9h-0.6L420.2,485.2z"/>
			<path fill="#5B5B5B" d="M442.8,481.1c-1.3,0-2.4,0.3-3.6,0.4c-0.1-2.3-3-3.7-4.9-2.1c-3.8,3.2,1.1,13.8,4.9,6.8
				c-0.4-0.9-2.2-0.2-3.2-0.4c0-0.9,0-1.8,0-2.8c2.3,0,4.6,0,6.8,0c0,2.7,0,8,0,8h-2.3c0,0,0-1,0-1.6c-5.8,4.1-12.1,0-11.3-7
				C430,474.4,441.6,473.7,442.8,481.1z"/>
			<path fill="#5B5B5B" d="M444.3,476c3.9,0,7.8,0,11.7,0c0,0.9,0,1.9,0,2.8c-2.6,0-7.7,0-7.7,0v3.1h6v3.1h-6v3.2
				c0,0,5.2-0.1,7.7,0.1c0,0.9,0,1.9,0,2.8c-3.9,0-7.8,0-11.7,0C444.3,486,444.3,481,444.3,476z"/>
		</g>
		<g>
			<g>
				<path fill="#EFE66F" d="M674.3,403c0,2.8-2.2,5-5,5h-55c-2.8,0-5-2.2-5-5v-55c0-2.8,2.2-5,5-5h55c2.8,0,5,2.2,5,5V403z"/>
				<path fill="none" stroke="#808080" stroke-miterlimit="10" d="M674.3,403c0,2.8-2.2,5-5,5h-55c-2.8,0-5-2.2-5-5v-55
					c0-2.8,2.2-5,5-5h55c2.8,0,5,2.2,5,5V403z"/>
			</g>
			<g>
				<path fill="#808080" d="M653.6,361.6c0.4-0.2,0.5-0.7,0.3-1c-0.2-0.4-0.7-0.5-1-0.3L648,363c-0.4,0.2-0.5,0.7-0.3,1
					c0.1,0.3,0.4,0.4,0.7,0.4c0.1,0,0.3,0,0.4-0.1L653.6,361.6z"/>
				<path fill="#808080" d="M654.2,377.8l-4.7-3c-0.4-0.2-0.8-0.1-1.1,0.2c-0.2,0.4-0.1,0.8,0.2,1.1l4.7,3c0.1,0.1,0.3,0.1,0.4,0.1
					c0.3,0,0.5-0.1,0.6-0.3C654.6,378.5,654.5,378,654.2,377.8z"/>
				<path fill="#808080" d="M655,368.7L655,368.7l-5.6,0.2c-0.4,0-0.8,0.4-0.7,0.8c0,0.4,0.4,0.7,0.8,0.7l0,0l5.6-0.2
					c0.4,0,0.8-0.4,0.7-0.8C655.8,369.1,655.4,368.7,655,368.7z"/>
				<path fill="#808080" d="M642,347.6c-12.3,0-22.3,10-22.3,22.3c0,12.3,10,22.3,22.3,22.3s22.3-10,22.3-22.3
					C664.3,357.6,654.3,347.6,642,347.6z M622.4,369.8c0-6.5,3.2-12.3,8.2-15.9l5.8,9.1l-1.3,1.3l-5.9,0.3v12.1h5.9l10.1,9.6V377
					l6.3,10c-2.8,1.6-6.1,2.5-9.5,2.5C631.2,389.4,622.4,380.6,622.4,369.8z M643.4,369.1l-4.1-6.4l4.1-4.1V369.1z M643.4,374.1v8.1
					l-7-6.7v-9.9l1-1L643.4,374.1z M634.5,375h-3.6v-8.6l3.6-0.2V375z M653.8,385.4l-8.6-13.5v-17.6l-6.8,6.8l-5.4-8.6
					c2.7-1.4,5.8-2.3,9.1-2.3c10.8,0,19.6,8.8,19.6,19.6C661.6,376.2,658.5,381.9,653.8,385.4z"/>
			</g>
		</g>
		<g>
			<g>
				<path fill="#EFEFEF" d="M194,309.6c0,3-2.4,5.4-5.4,5.4H129c-3,0-5.4-2.4-5.4-5.4v-59.7c0-3,2.4-5.4,5.4-5.4h59.7
					c3,0,5.4,2.4,5.4,5.4v59.7H194z"/>
				<path fill="none" stroke="#808080" stroke-miterlimit="10" d="M194,309.6c0,3-2.4,5.4-5.4,5.4H129c-3,0-5.4-2.4-5.4-5.4v-59.7
					c0-3,2.4-5.4,5.4-5.4h59.7c3,0,5.4,2.4,5.4,5.4v59.7H194z"/>
			</g>
			
				<linearGradient id="SVGID_1_" gradientUnits="userSpaceOnUse" x1="155.7549" y1="320.4238" x2="161.1886" y2="296.8876" gradientTransform="matrix(1 0 0 -1 4 595)">
				<stop  offset="0" style="stop-color:#FFFFFF"/>
				<stop  offset="0.1237" style="stop-color:#EDF9FC"/>
				<stop  offset="0.371" style="stop-color:#BFE8F3"/>
				<stop  offset="0.7158" style="stop-color:#76CEE6"/>
				<stop  offset="0.8466" style="stop-color:#58C3E0"/>
			</linearGradient>
			<path fill="url(#SVGID_1_)" d="M173.3,278.1l-3,18.8l-18.1,0.1l-3.2-20c0,0,8.3,1.8,9.9,3s4.9,1.1,5.5,0.8
				C165,280.5,173.3,278.1,173.3,278.1z"/>
			<path fill="#808080" d="M174.6,271.3c-0.7-0.1-1.4,0.4-1.6,1.1l-0.7,4.2c-1.5,1.1-8.9,4-11.2,2.6c-2.8-1.7-8.5-2.9-10.9-3.3
				l-0.6-3.5c-0.1-0.7-0.8-1.3-1.6-1.1c-0.7,0.1-1.2,0.8-1.1,1.6l4.2,25.9h20.5l4.2-25.9C175.8,272.2,175.3,271.5,174.6,271.3z
				 M169.2,296.1h-15.8l-2.8-17.3c2.8,0.5,7.1,1.5,9.1,2.8c0.9,0.5,2,0.7,3.3,0.7c3.4,0,7.3-1.6,8.3-2c0.2-0.1,0.4-0.2,0.6-0.2
				L169.2,296.1z"/>
			<path fill="#808080" d="M141.4,252.3c0,0,18.7-0.3,19.8-0.2c2.7,0.3,5,1.6,5.5,3.9c0.6,2.4,0.7,8,0.3,8.9l-7.9-0.1
				c0,0,0.6-5.8-0.1-5.6c0,0-6-0.7-17.5,0v-6.9H141.4z"/>
			<path fill="#808080" d="M162.5,268.7c0,0-0.2,1-1.3,1.6c0,0-1.7,0.7-2,2.3c0,0-0.5,3,1.7,3.8c2.2,0.8,3.6-0.3,3.6-0.3
				s1.8-0.9,0.6-5.6c-1-3.8-2.3-3.5-2.3-3.5S162.6,268,162.5,268.7z"/>
		</g>
		<polygon fill="#F2542F" stroke="#4D4D4D" stroke-miterlimit="10" points="628.9,243 655,243 674.3,261.7 674.3,289.2 655.4,308 
			629.1,308 609.3,289.5 609.3,262.4 		"/>
		<g>
			<g>
				<path fill="#EFEFEF" d="M257.9,354.7c0,4.6-3.7,8.3-8.3,8.3h-17.9c-4.6,0-8.3-3.7-8.3-8.3v-59.4c0-4.6,3.7-8.3,8.3-8.3h17.9
					c4.6,0,8.3,3.7,8.3,8.3V354.7z"/>
				<path fill="none" stroke="#808080" stroke-miterlimit="10" d="M257.9,354.7c0,4.6-3.7,8.3-8.3,8.3h-17.9c-4.6,0-8.3-3.7-8.3-8.3
					v-59.4c0-4.6,3.7-8.3,8.3-8.3h17.9c4.6,0,8.3,3.7,8.3,8.3V354.7z"/>
			</g>
			
				<linearGradient id="SVGID_2_" gradientUnits="userSpaceOnUse" x1="233.5664" y1="280.7002" x2="238.6082" y2="258.8615" gradientTransform="matrix(1 0 0 -1 4 595)">
				<stop  offset="0" style="stop-color:#FFFFFF"/>
				<stop  offset="0.1237" style="stop-color:#EDF9FC"/>
				<stop  offset="0.371" style="stop-color:#BFE8F3"/>
				<stop  offset="0.7158" style="stop-color:#76CEE6"/>
				<stop  offset="0.8466" style="stop-color:#58C3E0"/>
			</linearGradient>
			<path fill="url(#SVGID_2_)" d="M249.6,317.2v10c0,0,0.3,6.8-1.5,7.7c-1.8,0.9-15.2,0.5-15.8,0.2c-0.6-0.3-1.8-1.7-2-3.1
				c-0.2-1.4-0.1-16-0.1-16l1.6,2.1l2.1-0.8L249.6,317.2z"/>
			
				<line fill="none" stroke="#808080" stroke-width="1.9329" stroke-linecap="round" stroke-miterlimit="10" x1="227.4" y1="303.6" x2="248.6" y2="303.6"/>
			<line fill="none" stroke="#808080" stroke-width="2" stroke-miterlimit="10" x1="249.5" y1="307.2" x2="253.8" y2="307.2"/>
			<g>
				<path fill="#808080" d="M254.5,305.8v-0.5h-5.6v0.5c0,0.1,0.1,5.2,0.2,10.9h-15.3l-1.7,0.8l-1.3-1.9l0,0c0-1.9,0-3.4,0-4.2
					c0.1-3.9-2.3-5.8-2.4-5.9l-0.6,0.8c0,0,2.1,1.7,2.1,5.1c-0.1,3.6-0.1,20.9-0.1,21.1v0.1c0,0.1,0.7,3,3.4,3.2
					c1.2,0.1,4.4,0.1,7.3,0.1s5.5,0,5.7,0c0,0,3.3,0.3,3.9-3.7c0.2-1.6,0.3-6.7,0.2-12l1.8-0.9c1.5-1.1,2-3.3,2.3-4.5
					c0.1-0.3,0.2-0.7,0.2-0.7C254.5,313.9,254.8,313.5,254.5,305.8z M253.5,306.3c0,0.3,0,0.6,0,0.9l-1.5,0.1c0,0,0.2,4.9-0.5,7.3
					c-0.4,1.2-0.9,2-1.4,2.5c-0.1-4.8-0.1-9.2-0.2-10.7h3.6V306.3z M248.9,332.1c-0.4,3-2.5,2.8-2.8,2.8c-0.1,0-10.7,0.1-13-0.1
					c-1.8-0.1-2.4-2.1-2.5-2.4c0-0.8,0-9,0-15.1l1,1.4l2.2-1.1H249C249.1,323.8,249.1,330.3,248.9,332.1z"/>
				<path fill="#808080" d="M245.9,320.3h-11.5c-0.3,0-0.5,0.2-0.5,0.5s0.2,0.5,0.5,0.5h11.5c0.3,0,0.5-0.2,0.5-0.5
					S246.2,320.3,245.9,320.3z"/>
				<path fill="#808080" d="M234.4,324.7h2.8c0.3,0,0.5-0.2,0.5-0.5s-0.2-0.5-0.5-0.5h-2.8c-0.3,0-0.5,0.2-0.5,0.5
					S234.1,324.7,234.4,324.7z"/>
				<path fill="#808080" d="M245.9,327.1h-11.5c-0.3,0-0.5,0.2-0.5,0.5c0,0.3,0.2,0.5,0.5,0.5h11.5c0.3,0,0.5-0.2,0.5-0.5
					C246.4,327.3,246.2,327.1,245.9,327.1z"/>
				<path fill="#808080" d="M237.1,330.5h-2.8c-0.3,0-0.5,0.2-0.5,0.5s0.2,0.5,0.5,0.5h2.8c0.3,0,0.5-0.2,0.5-0.5
					S237.4,330.5,237.1,330.5z"/>
			</g>
			<g>
				<path fill="#808080" d="M238.8,314h3.9v1.1h-5.3v-8.5h1.4V314L238.8,314z"/>
			</g>
		</g>
		<g>
			<g>
				<path fill="#E2E0DC" stroke="#808080" stroke-width="1.0957" stroke-miterlimit="10" d="M533.2,219.3c0,0-3.2,21.5-0.5,35.7
					c0,0,6.2,11.8,25.2,16.2c0,0,10-1.2,23.7-15.8c0,0,2.3-32.3-0.5-36c0,0-13.7-17.2-24-18.3C557.1,201,547.7,201,533.2,219.3z"/>
				
					<linearGradient id="SVGID_3_" gradientUnits="userSpaceOnUse" x1="548.0469" y1="378.8223" x2="559.7646" y2="328.067" gradientTransform="matrix(1 0 0 -1 4 595)">
					<stop  offset="0" style="stop-color:#FFFFFF"/>
					<stop  offset="0.1846" style="stop-color:#EDF6ED"/>
					<stop  offset="0.5535" style="stop-color:#BFDFBF"/>
					<stop  offset="1" style="stop-color:#80C080"/>
				</linearGradient>
				<path fill="url(#SVGID_3_)" stroke="#808080" stroke-miterlimit="10" d="M535.1,225.5c0,0-2.3,18.8,0.3,28.3
					c0,0,9,12.2,22.2,14.5c0,0,14.5-4.2,20.5-14.5c0,0,2.7-16.5,1.5-27.3c0,0-0.3-8.2-6.7-9c-6.4-0.8-9.7,0.2-14.8,3.3
					c-5.1,3.1-6.2,1.3-9.7,0.7s-7.2-3.2-9.3-2.3C537,220.1,535.2,220.8,535.1,225.5z"/>
				<path fill="none" stroke="#808080" stroke-width="1.0957" stroke-miterlimit="10" d="M556.4,204.7c0,0,3.3,0.7,3,2.3
					c-0.3,1.6-2.3,2.2-3,2.2c-0.7,0-2.3-1.2-2.3-2.2S555.7,204.7,556.4,204.7z"/>
			</g>
			<g>
				<path fill="#808080" d="M548.3,244.8h3.9v1.1h-5.3v-8.5h1.4V244.8L548.3,244.8z"/>
				<path fill="#808080" d="M553.6,246.7h-0.9l3.6-9.3h0.9L553.6,246.7z"/>
				<path fill="#808080" d="M559.6,240.4L559.6,240.4c0.2-0.3,0.5-0.5,0.8-0.7c0.3-0.2,0.6-0.2,1-0.2c0.7,0,1.2,0.2,1.6,0.6
					s0.6,1.1,0.6,2v3.9h-1.4v-3.9c0-0.5-0.1-0.9-0.3-1.1c-0.2-0.2-0.5-0.3-0.9-0.3c-0.3,0-0.5,0.1-0.8,0.2s-0.4,0.3-0.5,0.5v4.6
					h-1.4v-9.1h1.4v3.5H559.6z"/>
				<path fill="#808080" d="M568.3,240.9h-0.7c-0.3,0-0.5,0.1-0.7,0.2c-0.2,0.1-0.3,0.3-0.4,0.5v4.4H565v-6.3h1.3l0.1,0.9l0,0
					c0.2-0.3,0.4-0.6,0.6-0.7s0.5-0.3,0.9-0.3c0.1,0,0.2,0,0.3,0c0.1,0,0.2,0,0.2,0L568.3,240.9z"/>
			</g>
		</g>
		<g>
			
				<linearGradient id="SVGID_4_" gradientUnits="userSpaceOnUse" x1="550.4482" y1="219.5479" x2="566.9576" y2="148.0382" gradientTransform="matrix(1 0 0 -1 4 595)">
				<stop  offset="0" style="stop-color:#FFFFFF"/>
				<stop  offset="0.1452" style="stop-color:#FFFBFB"/>
				<stop  offset="0.3008" style="stop-color:#FEF0EE"/>
				<stop  offset="0.4612" style="stop-color:#FEDED8"/>
				<stop  offset="0.6249" style="stop-color:#FDC5BA"/>
				<stop  offset="0.7911" style="stop-color:#FBA494"/>
				<stop  offset="0.9572" style="stop-color:#F97D65"/>
				<stop  offset="1" style="stop-color:#F97258"/>
			</linearGradient>
			<path fill="url(#SVGID_4_)" stroke="#808080" stroke-width="2.0323" stroke-miterlimit="10" d="M562.9,373.5
				c0,0-21.5,21.5-21.2,50.5c0,0,1.8,16.8,17.6,22.2c0,0,18.6,5.8,27.1-10.5c8.5-16.2-4.6-30.8-8-32.5c-4.2-2.1-11.6-7.4-14.5-23.5
				L562.9,373.5z"/>
			<g>
				<path fill="#808080" d="M547.6,417.1l0.1,0.8l0,0c0.2-0.3,0.5-0.5,0.8-0.7s0.7-0.2,1.1-0.2c0.4,0,0.8,0.1,1.1,0.3
					s0.5,0.5,0.7,0.8c0.2-0.4,0.5-0.6,0.8-0.8s0.7-0.3,1.1-0.3c0.7,0,1.2,0.2,1.5,0.6c0.3,0.4,0.5,1.1,0.5,2v3.8h-1.4v-3.8
					c0-0.6-0.1-0.9-0.3-1.1s-0.5-0.3-0.8-0.3s-0.6,0.1-0.8,0.2c-0.2,0.1-0.4,0.4-0.5,0.7c0,0.1,0,0.1,0,0.2c0,0.1,0,0.1,0,0.1v4.1
					H550v-3.8c0-0.5-0.1-0.9-0.3-1.1c-0.2-0.2-0.5-0.3-0.8-0.3c-0.3,0-0.5,0.1-0.7,0.2s-0.4,0.3-0.5,0.5v4.7h-1.4v-6.3h1.3V417.1z"
					/>
				<path fill="#808080" d="M558.2,423.4h-1.4v-9.1h1.4V423.4z"/>
				<path fill="#808080" d="M560.1,424.2h-0.9l3.6-9.3h0.9L560.1,424.2z"/>
				<path fill="#808080" d="M566.1,417.1l0.1,0.8l0,0c0.2-0.3,0.5-0.5,0.8-0.7s0.7-0.2,1.1-0.2c0.4,0,0.8,0.1,1.1,0.3
					s0.5,0.5,0.7,0.8c0.2-0.4,0.5-0.6,0.8-0.8s0.7-0.3,1.1-0.3c0.7,0,1.2,0.2,1.5,0.6c0.3,0.4,0.5,1.1,0.5,2v3.8h-1.4v-3.8
					c0-0.6-0.1-0.9-0.3-1.1s-0.5-0.3-0.8-0.3s-0.6,0.1-0.8,0.2c-0.2,0.1-0.4,0.4-0.5,0.7c0,0.1,0,0.1,0,0.2c0,0.1,0,0.1,0,0.1v4.1
					h-1.4v-3.8c0-0.5-0.1-0.9-0.3-1.1c-0.2-0.2-0.5-0.3-0.8-0.3s-0.5,0.1-0.7,0.2s-0.4,0.3-0.5,0.5v4.7h-1.4v-6.3h1.2V417.1z"/>
				<path fill="#808080" d="M576.7,415.5h-1.4v-1.2h1.4V415.5z M576.7,423.4h-1.4v-6.3h1.4V423.4z"/>
				<path fill="#808080" d="M579.6,417.1l0.1,0.9l0,0c0.2-0.3,0.5-0.6,0.8-0.7c0.3-0.1,0.7-0.3,1.1-0.3c0.7,0,1.2,0.2,1.6,0.6
					c0.4,0.4,0.5,1,0.5,1.9v4h-1.4v-4c0-0.5-0.1-0.8-0.3-1s-0.5-0.3-0.9-0.3c-0.3,0-0.5,0.1-0.7,0.2c-0.2,0.1-0.4,0.3-0.5,0.5v4.6
					h-1.4v-6.3h1.1V417.1z"/>
			</g>
		</g>
		<g>
			
				<linearGradient id="SVGID_5_" gradientUnits="userSpaceOnUse" x1="549.4297" y1="312.8389" x2="566.7217" y2="237.9384" gradientTransform="matrix(1 0 0 -1 4 595)">
				<stop  offset="0" style="stop-color:#FFFFFF"/>
				<stop  offset="0.1916" style="stop-color:#FFFEFC"/>
				<stop  offset="0.3572" style="stop-color:#FDFDF1"/>
				<stop  offset="0.5131" style="stop-color:#FBF9DF"/>
				<stop  offset="0.6632" style="stop-color:#F9F5C6"/>
				<stop  offset="0.8091" style="stop-color:#F5F0A6"/>
				<stop  offset="0.9499" style="stop-color:#F1E97F"/>
				<stop  offset="1" style="stop-color:#EFE66F"/>
			</linearGradient>
			<path fill="url(#SVGID_5_)" stroke="#808080" stroke-width="2" stroke-miterlimit="10" d="M528.9,297c0,0,0.6,5.4,0.8,7.2
				c0.1,1.8,8,49.8,8,49.8s19.5,9.8,42.5,0l4.5-52l0.5-6.5c0,0,0.8-3,1.8-3.2c1-0.2,0.5-4.5-0.5-4.5s-22.8-4.5-57.5,0
				c0,0-3.5,2.5-3,4.8c0.5,2.3,2.2,2.5,2.2,2.5L528.9,297z"/>
			<path fill="none" stroke="#808080" stroke-width="2" stroke-miterlimit="10" d="M528.2,295c0,0,19.8,2,29.5,1.6
				c9.4-0.4,23.9-1.8,28.1-3.5"/>
			<path fill="none" stroke="#808080" stroke-width="2" stroke-miterlimit="10" d="M585.5,288.1c-0.4,2.8-15.9,3.4-28.1,3.8
				c-12,0.4-27.6-1.4-29.1-1.9s0.6-2.2,0.6-2.2"/>
			<path fill="#808080" d="M585.2,287.8c0,0,1,3.6-29.8,3.8c0,0-25.8,0.2-28.1-2.1c0,0,0.3-2,5.6-2.3c5.3-0.3,19.7-1.7,22.5-1.6
				C558.2,285.7,585.2,287.8,585.2,287.8z"/>
			<g>
				<path fill="#808080" d="M551.4,311.1h3.3v0.9h-4.5v-7.1h1.2V311.1z"/>
				<path fill="#808080" d="M555.8,312.7H555l3-7.7h0.8L555.8,312.7z"/>
				<path fill="#808080" d="M560.9,307.4L560.9,307.4c0.2-0.2,0.4-0.4,0.6-0.6c0.2-0.1,0.5-0.2,0.8-0.2c0.6,0,1,0.2,1.3,0.5
					c0.3,0.3,0.5,0.9,0.5,1.6v3.2h-1.2v-3.2c0-0.4-0.1-0.7-0.2-0.9c-0.2-0.2-0.4-0.3-0.8-0.3c-0.2,0-0.4,0-0.6,0.1
					c-0.2,0.1-0.3,0.2-0.5,0.4v3.9h-1.2v-7.6h1.2v3.1H560.9z"/>
				<path fill="#808080" d="M568,307.8h-0.6c-0.2,0-0.4,0-0.6,0.1c-0.2,0.1-0.3,0.2-0.4,0.4v3.7h-1.2v-5.3h1.1l0.1,0.7l0,0
					c0.1-0.3,0.3-0.5,0.5-0.6c0.2-0.1,0.4-0.2,0.7-0.2c0.1,0,0.2,0,0.2,0s0.1,0,0.2,0V307.8z"/>
			</g>
			<g>
				<path fill="#808080" d="M548.3,333.3l0.1,0.7l0,0c0.2-0.2,0.4-0.4,0.6-0.6c0.3-0.1,0.6-0.2,0.9-0.2c0.4,0,0.6,0.1,0.9,0.2
					c0.2,0.2,0.4,0.4,0.6,0.7c0.2-0.3,0.4-0.5,0.6-0.7c0.3-0.2,0.6-0.2,0.9-0.2c0.5,0,1,0.2,1.3,0.5c0.3,0.4,0.5,0.9,0.5,1.7v3.2
					h-1.2v-3.2c0-0.5-0.1-0.8-0.2-1c-0.1-0.2-0.4-0.3-0.7-0.3c-0.3,0-0.5,0.1-0.6,0.2c-0.2,0.1-0.3,0.3-0.4,0.6v0.1v0.1v3.4h-1.2
					v-3.2c0-0.4-0.1-0.8-0.2-0.9c-0.1-0.1-0.4-0.3-0.7-0.3c-0.2,0-0.4,0-0.6,0.1c-0.2,0.1-0.3,0.2-0.4,0.4v3.9h-1.2v-5.3
					L548.3,333.3L548.3,333.3z"/>
				<path fill="#808080" d="M557.1,338.5H556v-7.6h1.2v7.6H557.1z"/>
				<path fill="#808080" d="M558.7,339.2h-0.8l3-7.7h0.8L558.7,339.2z"/>
				<path fill="#808080" d="M563.8,333.9L563.8,333.9c0.2-0.2,0.4-0.4,0.6-0.6c0.2-0.1,0.5-0.2,0.8-0.2c0.6,0,1,0.2,1.3,0.5
					c0.3,0.3,0.5,0.9,0.5,1.6v3.2h-1.2v-3.2c0-0.4-0.1-0.7-0.2-0.9c-0.2-0.2-0.4-0.3-0.8-0.3c-0.2,0-0.4,0-0.6,0.1
					c-0.2,0.1-0.3,0.2-0.5,0.4v3.9h-1.2v-7.6h1.2L563.8,333.9L563.8,333.9z"/>
				<path fill="#808080" d="M570.9,334.3h-0.6c-0.2,0-0.4,0-0.6,0.1c-0.2,0.1-0.3,0.2-0.4,0.4v3.7h-1.2v-5.3h1.1l0.1,0.7l0,0
					c0.1-0.3,0.3-0.5,0.5-0.6c0.2-0.1,0.4-0.2,0.7-0.2c0.1,0,0.2,0,0.2,0s0.1,0,0.2,0V334.3z"/>
			</g>
			<g>
				<g>
					<path fill="#808080" d="M543.6,319.7c0-1.6,0.3-2.9,0.9-3.9s1.3-1.8,2-2.1l0.3,0.8c-0.5,0.4-1,1-1.4,1.9
						c-0.4,0.9-0.6,2-0.6,3.3v0.1c0,1.4,0.2,2.5,0.5,3.3c0.3,0.8,0.8,1.5,1.4,1.9l-0.3,0.8c-0.7-0.4-1.4-1.1-2-2.1
						C543.8,322.7,543.6,321.4,543.6,319.7L543.6,319.7z"/>
					<path fill="#808080" d="M553.2,319.9c0,1.1-0.2,2-0.7,2.6s-1.2,0.9-2.1,0.9c-0.9,0-1.6-0.3-2.1-0.9s-0.7-1.4-0.7-2.6v-2
						c0-1.1,0.2-2,0.7-2.6c0.5-0.6,1.2-0.9,2.1-0.9c0.9,0,1.6,0.3,2.1,0.9c0.5,0.6,0.7,1.4,0.7,2.6V319.9z M551.7,317.8
						c0-0.7-0.1-1.2-0.3-1.6c-0.2-0.4-0.6-0.5-1-0.5c-0.4,0-0.8,0.2-1,0.5c-0.2,0.3-0.3,0.9-0.3,1.6v2.4c0,0.7,0.1,1.2,0.3,1.6
						c0.2,0.4,0.6,0.5,1,0.5c0.4,0,0.8-0.2,1-0.5c0.2-0.3,0.3-0.9,0.3-1.6V317.8z"/>
					<path fill="#808080" d="M556.1,323.2h-1.4v-1.4h1.4V323.2z"/>
					<path fill="#808080" d="M563.3,319.9c0,1.1-0.2,2-0.7,2.6s-1.2,0.9-2.1,0.9s-1.6-0.3-2.1-0.9s-0.7-1.4-0.7-2.6v-2
						c0-1.1,0.2-2,0.7-2.6c0.5-0.6,1.2-0.9,2.1-0.9s1.6,0.3,2.1,0.9c0.5,0.6,0.7,1.4,0.7,2.6V319.9z M561.9,317.8
						c0-0.7-0.1-1.2-0.3-1.6c-0.2-0.4-0.6-0.5-1-0.5c-0.4,0-0.8,0.2-1,0.5c-0.2,0.3-0.3,0.9-0.3,1.6v2.4c0,0.7,0.1,1.2,0.3,1.6
						c0.2,0.4,0.6,0.5,1,0.5c0.4,0,0.8-0.2,1-0.5c0.2-0.3,0.3-0.9,0.3-1.6V317.8z"/>
					<path fill="#808080" d="M570.1,319.9c0,1.1-0.2,2-0.7,2.6s-1.2,0.9-2.1,0.9c-0.9,0-1.6-0.3-2.1-0.9s-0.7-1.4-0.7-2.6v-2
						c0-1.1,0.2-2,0.7-2.6c0.5-0.6,1.2-0.9,2.1-0.9c0.9,0,1.6,0.3,2.1,0.9c0.5,0.6,0.7,1.4,0.7,2.6V319.9z M568.7,317.8
						c0-0.7-0.1-1.2-0.3-1.6c-0.2-0.4-0.6-0.5-1-0.5c-0.4,0-0.8,0.2-1,0.5c-0.2,0.3-0.3,0.9-0.3,1.6v2.4c0,0.7,0.1,1.2,0.3,1.6
						c0.2,0.4,0.6,0.5,1,0.5c0.4,0,0.8-0.2,1-0.5c0.2-0.3,0.3-0.9,0.3-1.6V317.8z"/>
					<path fill="#808080" d="M574.1,319.8c0,1.6-0.3,2.9-0.9,3.9c-0.6,1-1.3,1.8-2,2.2l-0.3-0.8c0.5-0.4,1-1,1.3-1.9
						c0.3-0.9,0.6-2,0.6-3.4v-0.1c0-1.4-0.2-2.5-0.6-3.3c-0.4-0.8-0.8-1.5-1.3-1.9l0.3-0.8c0.7,0.4,1.4,1.1,2,2.2
						C573.8,317,574.1,318.2,574.1,319.8L574.1,319.8z"/>
				</g>
			</g>
			<g>
				<g>
					<path fill="#808080" d="M543.6,346.6c0-1.6,0.3-2.9,0.9-3.9s1.3-1.8,2-2.1l0.3,0.8c-0.5,0.4-1,1-1.4,1.9
						c-0.4,0.9-0.6,2-0.6,3.3v0.1c0,1.4,0.2,2.5,0.5,3.3s0.8,1.5,1.4,1.9l-0.3,0.8c-0.7-0.4-1.4-1.1-2-2.1
						C543.8,349.6,543.6,348.3,543.6,346.6L543.6,346.6z"/>
					<path fill="#808080" d="M553.2,346.8c0,1.1-0.2,2-0.7,2.6c-0.5,0.6-1.2,0.9-2.1,0.9c-0.9,0-1.6-0.3-2.1-0.9
						c-0.5-0.6-0.7-1.4-0.7-2.6v-2c0-1.1,0.2-2,0.7-2.6c0.5-0.6,1.2-0.9,2.1-0.9c0.9,0,1.6,0.3,2.1,0.9c0.5,0.6,0.7,1.4,0.7,2.6
						V346.8z M551.7,344.7c0-0.7-0.1-1.2-0.3-1.6c-0.2-0.4-0.6-0.5-1-0.5c-0.4,0-0.8,0.2-1,0.5c-0.2,0.3-0.3,0.9-0.3,1.6v2.4
						c0,0.7,0.1,1.2,0.3,1.6c0.2,0.4,0.6,0.5,1,0.5c0.4,0,0.8-0.2,1-0.5c0.2-0.3,0.3-0.9,0.3-1.6V344.7z"/>
					<path fill="#808080" d="M556.1,350.1h-1.4v-1.4h1.4V350.1z"/>
					<path fill="#808080" d="M563.3,346.8c0,1.1-0.2,2-0.7,2.6c-0.5,0.6-1.2,0.9-2.1,0.9s-1.6-0.3-2.1-0.9c-0.5-0.6-0.7-1.4-0.7-2.6
						v-2c0-1.1,0.2-2,0.7-2.6c0.5-0.6,1.2-0.9,2.1-0.9s1.6,0.3,2.1,0.9c0.5,0.6,0.7,1.4,0.7,2.6V346.8z M561.9,344.7
						c0-0.7-0.1-1.2-0.3-1.6c-0.2-0.4-0.6-0.5-1-0.5c-0.4,0-0.8,0.2-1,0.5c-0.2,0.3-0.3,0.9-0.3,1.6v2.4c0,0.7,0.1,1.2,0.3,1.6
						c0.2,0.4,0.6,0.5,1,0.5c0.4,0,0.8-0.2,1-0.5c0.2-0.3,0.3-0.9,0.3-1.6V344.7z"/>
					<path fill="#808080" d="M570.1,346.8c0,1.1-0.2,2-0.7,2.6c-0.5,0.6-1.2,0.9-2.1,0.9c-0.9,0-1.6-0.3-2.1-0.9
						c-0.5-0.6-0.7-1.4-0.7-2.6v-2c0-1.1,0.2-2,0.7-2.6c0.5-0.6,1.2-0.9,2.1-0.9c0.9,0,1.6,0.3,2.1,0.9c0.5,0.6,0.7,1.4,0.7,2.6
						V346.8z M568.7,344.7c0-0.7-0.1-1.2-0.3-1.6c-0.2-0.4-0.6-0.5-1-0.5c-0.4,0-0.8,0.2-1,0.5c-0.2,0.3-0.3,0.9-0.3,1.6v2.4
						c0,0.7,0.1,1.2,0.3,1.6c0.2,0.4,0.6,0.5,1,0.5c0.4,0,0.8-0.2,1-0.5c0.2-0.3,0.3-0.9,0.3-1.6V344.7z"/>
					<path fill="#808080" d="M574.1,346.7c0,1.6-0.3,2.9-0.9,3.9c-0.6,1-1.3,1.8-2,2.2l-0.3-0.8c0.5-0.4,1-1,1.3-1.9
						c0.3-0.9,0.6-2,0.6-3.4v-0.1c0-1.4-0.2-2.5-0.6-3.3c-0.4-0.8-0.8-1.5-1.3-1.9l0.3-0.8c0.7,0.4,1.4,1.1,2,2.2
						C573.8,343.9,574.1,345.1,574.1,346.7L574.1,346.7z"/>
				</g>
			</g>
		</g>
		<path fill="#80C080" stroke="#666666" stroke-miterlimit="10" d="M148.5,374c0,0,3,8.2,0.2,12.8c-2.8,4.6-5.2,1.5-7.2,11
			c0,0-3,12.5,7.5,17c0,0,26.2,8.2,41.2-15.5c17.5-27.7-8.8-48-11-49.8c-2.2-1.8-16.2-7-22-5.5c-5.8,1.5-12.5,3.5-14.5,10.2
			s-1.5,12.8,0.8,15.2C145.8,371.8,148.5,374,148.5,374z"/>
		<polygon fill="#80C080" points="267.4,201.5 308.4,271.5 347.9,201.5 		"/>
		<polygon fill="#80C080" points="490.4,201.5 490.2,201.5 450.7,271.5 531.4,271.5 		"/>
		<polygon fill="none" stroke="#808080" stroke-width="1.046" stroke-miterlimit="10" points="531.4,271.5 490.4,201.5 267.4,201.5 
			308.4,271.5 		"/>
		<line fill="none" stroke="#808080" stroke-width="1.046" stroke-miterlimit="10" x1="308.4" y1="271.5" x2="347.9" y2="201.5"/>
		<line fill="none" stroke="#808080" stroke-width="1.046" stroke-miterlimit="10" x1="450.7" y1="271.5" x2="490.2" y2="201.5"/>
		<polygon fill="#FFFFFF" points="490.3,205.1 490.2,205.1 483.9,216.4 496.9,216.4 		"/>
		<polygon fill="#FFFFFF" points="308.5,267.6 308.5,267.6 314.9,256.3 301.9,256.3 		"/>
		<polygon fill="#EFE66F" stroke="#808080" stroke-miterlimit="10" points="267.4,290 308.4,360 347.9,290 		"/>
		<polygon fill="#EFE66F" stroke="#808080" stroke-miterlimit="10" points="490.4,290 490.2,290 450.7,360 531.4,360 		"/>
		<polygon fill="none" stroke="#808080" stroke-width="1.046" stroke-miterlimit="10" points="531.4,360 490.4,290 267.4,290 
			308.4,360 		"/>
		<line fill="none" stroke="#808080" stroke-width="1.046" stroke-miterlimit="10" x1="308.4" y1="360" x2="347.9" y2="290"/>
		<line fill="none" stroke="#808080" stroke-width="1.046" stroke-miterlimit="10" x1="450.7" y1="360" x2="490.2" y2="290"/>
		<polygon fill="#FFFFFF" points="490.3,293.6 490.2,293.6 483.9,304.9 496.9,304.9 		"/>
		<polygon fill="#FFFFFF" points="308.5,356.1 308.5,356.1 314.9,344.8 301.9,344.8 		"/>
		<polygon fill="#F2542F" stroke="#4D4D4D" stroke-miterlimit="10" points="267.4,378.5 308.4,448.5 347.9,378.5 		"/>
		<polygon fill="#F2542F" stroke="#4D4D4D" stroke-miterlimit="10" points="490.4,378.5 490.2,378.5 450.7,448.5 531.4,448.5 		"/>
		<polygon fill="none" stroke="#808080" stroke-width="1.046" stroke-miterlimit="10" points="531.4,448.5 490.4,378.5 267.4,378.5 
			308.4,448.5 		"/>
		<line fill="none" stroke="#808080" stroke-width="1.046" stroke-miterlimit="10" x1="308.4" y1="448.5" x2="347.9" y2="378.5"/>
		<line fill="none" stroke="#808080" stroke-width="1.046" stroke-miterlimit="10" x1="450.7" y1="448.5" x2="490.2" y2="378.5"/>
		<polygon fill="#FFFFFF" points="490.3,382.1 490.2,382.1 483.9,393.4 496.9,393.4 		"/>
		<polygon fill="#FFFFFF" points="308.5,444.5 308.5,444.5 314.9,433.3 301.9,433.3 		"/>
		<g>
			<rect x="585.9" y="155.4" fill="#FFFFFF" stroke="#000000" stroke-width="2" stroke-miterlimit="10" width="18" height="18"/>
			<g>
				<path d="M626.2,157.9c0,0,0.7-3.2-1.8-5.7c0,0-2.2-2.2-5.8-2.8c-3.6-0.6-8,3.5-8,4s-0.7,0.6-1,8.3c-0.2,4.4-0.1,5.9-0.1,5.9
					s0.1,3.8,0.2,4.3c0.1,0.5,1.3,4.8,6.8,5.3c0,0,4.2,0.2,4.7-0.2s4.7-1.7,4.8-5.7C626.1,171.4,627.1,167.8,626.2,157.9z
					 M619.8,169.4c0,0.8-1.1,1.2-1.1,1.2s0.2,2.3,0.2,2.5c0,0.2-0.9,0.9-1,0.9c-0.1,0-0.8-0.5-0.9-0.7c-0.1-0.2,0.3-2.6,0.3-2.6
					l-0.9-0.8c-0.5-0.4-0.4-1.5-0.4-1.5s0-0.8,0.7-1.2c0.9-0.5,1.6-0.7,2.5,0C620.1,167.9,619.9,168.6,619.8,169.4z M623.6,160.5
					c0,0.8-2.2,2.1-2.2,2.1s-5.7,0-6.7,0s-2.2-1.8-2.2-1.8s-0.5-4.2,0.1-5.8c0.6-1.6,2.9-2.9,6.5-2.7c3.6,0.2,4.2,2.5,4.5,3.7
					C623.9,157.2,623.6,159.8,623.6,160.5z"/>
			</g>
		</g>
		
			<linearGradient id="SVGID_6_" gradientUnits="userSpaceOnUse" x1="271.2002" y1="25v9.5" x2="271.2002" y2="259.5" gradientTransform="matrix(1 0 0 -1 4 595)">
			<stop  offset="0" style="stop-color:#FFFFFF"/>
			<stop  offset="0.1237" style="stop-color:#EDF9FC"/>
			<stop  offset="0.371" style="stop-color:#BFE8F3"/>
			<stop  offset="0.7158" style="stop-color:#76CEE6"/>
			<stop  offset="0.8466" style="stop-color:#58C3E0"/>
		</linearGradient>
		<path fill="url(#SVGID_6_)" d="M275.2,335.5"/>
	</g>
</g>
<g id="light">
	<rect x="150.5" y="402.1" fill="#D9DADB" stroke="#808080" stroke-width="0.5" stroke-miterlimit="10" width="19.5" height="10"/>
	<rect x="150.5" y="301.6" fill="#D9DADB" stroke="#808080" stroke-width="0.5" stroke-miterlimit="10" width="19.5" height="10"/>
	<rect x="231" y="345.1" fill="#D9DADB" stroke="#808080" stroke-width="0.5" stroke-miterlimit="10" width="19.5" height="10"/>
	<rect x="632.5" y="295.2" fill="#D9DADB" stroke="#808080" stroke-width="0.5" stroke-miterlimit="10" width="19.5" height="10"/>
	<rect x="633.3" y="396" fill="#D9DADB" stroke="#808080" stroke-width="0.5" stroke-miterlimit="10" width="19.5" height="10"/>
</g>
<g id="text">
	<rect x="176" y="138.3" fill="#3A3A3A" width="133.3" height="36"/>
	<rect x="315.9" y="138.3" fill="#3A3A3A" width="125.1" height="36"/>
	<rect x="447.5" y="138.3" fill="#3A3A3A" width="129.5" height="36"/>
	<polygon fill="#3A3A3A" points="347.9,201.5 308.4,271.5 450.7,271.5 490.2,201.5 	"/>
	<polygon fill="#3A3A3A" points="347.9,290 308.4,360 450.7,360 490.2,290 	"/>
	<polygon fill="#3A3A3A" points="347.9,378.5 308.4,448.5 450.7,448.5 490.2,378.5 	"/>
</g>
</svg>
